<svg xmlns="http://www.w3.org/2000/svg" style="display:none">
  <symbol id="icon-v" viewBox="0 0 24 24">
    <path d="M4 5h4l4 12h0l4-12h4l-6.5 16h-3z" fill="none" stroke="white" stroke-width="2" stroke-linejoin="round" stroke-linecap="round"/>
  </symbol>
  <symbol id="icon-home" viewBox="0 0 24 24">
    <path d="M4 10l8-6 8 6v9h-5v-5H9v5H4z" fill="none" stroke="white" stroke-width="2" stroke-linejoin="round"/>
  </symbol>
  <symbol id="icon-search" viewBox="0 0 24 24">
    <circle cx="11" cy="11" r="6" fill="none" stroke="white" stroke-width="2"/>
    <path d="M16 16l5 5" fill="none" stroke="white" stroke-width="2" stroke-linecap="round"/>
  </symbol>
  <symbol id="icon-upload" viewBox="0 0 24 24">
    <path d="M12 16V6" fill="none" stroke="white" stroke-width="2" stroke-linecap="round"/>
    <path d="M8 10l4-4 4 4" fill="none" stroke="white" stroke-width="2" stroke-linecap="round" stroke-linejoin="round"/>
    <path d="M4 18h16" fill="none" stroke="white" stroke-width="2" stroke-linecap="round"/>
  </symbol>
  <symbol id="icon-grid" viewBox="0 0 24 24">
    <rect x="4" y="4" width="7" height="7" fill="none" stroke="white" stroke-width="2"/>
    <rect x="13" y="4" width="7" height="7" fill="none" stroke="white" stroke-width="2"/>
    <rect x="4" y="13" width="7" height="7" fill="none" stroke="white" stroke-width="2"/>
    <rect x="13" y="13" width="7" height="7" fill="none" stroke="white" stroke-width="2"/>
  </symbol>
  <symbol id="icon-user" viewBox="0 0 24 24">
    <circle cx="12" cy="8" r="4" fill="none" stroke="white" stroke-width="2"/>
    <path d="M4 20c1.6-4 14.4-4 16 0" fill="none" stroke="white" stroke-width="2" stroke-linecap="round"/>
  </symbol>
  <symbol id="icon-settings" viewBox="0 0 24 24">
    <circle cx="12" cy="12" r="3" fill="none" stroke="white" stroke-width="2"/>
    <path d="M19 12l2-1-1-3-2 1a7 7 0 0 0-2-2l1-2-3-1-1 2a7 7 0 0 0-3 0l-1-2-3 1 1 2a7 7 0 0 0-2 2l-2-1-1 3 2 1a7 7 0 0 0 0 3l-2 1 1 3 2-1a7 7 0 0 0 2 2l-1 2 3 1 1-2a7 7 0 0 0 3 0l1 2 3-1-1-2a7 7 0 0 0 2-2l2 1 1-3-2-1a7 7 0 0 0 0-3z" fill="none" stroke="white" stroke-width="1.5" stroke-linejoin="round"/>
  </symbol>
  <symbol id="icon-heart" viewBox="0 0 24 24">
    <path d="M12 20s-7-4.5-7-9a4 4 0 0 1 7-2 4 4 0 0 1 7 2c0 4.5-7 9-7 9z" fill="none" stroke="white" stroke-width="2" stroke-linejoin="round"/>
  </symbol>
  <symbol id="icon-bookmark" viewBox="0 0 24 24">
    <path d="M7 4h10v16l-5-4-5 4z" fill="none" stroke="white" stroke-width="2" stroke-linejoin="round"/>
  </symbol>
  <symbol id="icon-share" viewBox="0 0 24 24">
    <circle cx="18" cy="5" r="2" fill="none" stroke="white" stroke-width="2"/>
    <circle cx="6" cy="12" r="2" fill="none" stroke="white" stroke-width="2"/>
    <circle cx="18" cy="19" r="2" fill="none" stroke="white" stroke-width="2"/>
    <path d="M8 12l8-5M8 12l8 7" fill="none" stroke="white" stroke-width="2" stroke-linecap="round"/>
  </symbol>
  <symbol id="icon-download" viewBox="0 0 24 24">
    <path d="M12 5v10" fill="none" stroke="white" stroke-width="2" stroke-linecap="round"/>
    <path d="M8 11l4 4 4-4" fill="none" stroke="white" stroke-width="2" stroke-linecap="round" stroke-linejoin="round"/>
    <path d="M5 19h14" fill="none" stroke="white" stroke-width="2" stroke-linecap="round"/>
  </symbol>
  <symbol id="icon-more" viewBox="0 0 24 24">
    <circle cx="6" cy="12" r="1.8" fill="white"/>
    <circle cx="12" cy="12" r="1.8" fill="white"/>
    <circle cx="18" cy="12" r="1.8" fill="white"/>
  </symbol>
  <symbol id="icon-filter" viewBox="0 0 24 24">
    <path d="M4 6h16l-6 7v5l-4-2v-3z" fill="none" stroke="white" stroke-width="2" stroke-linejoin="round"/>
  </symbol>
  <symbol id="icon-tag" viewBox="0 0 24 24">
    <path d="M3 12l9 9 9-9-9-9H7z" fill="none" stroke="white" stroke-width="2" stroke-linejoin="round"/>
    <circle cx="9" cy="9" r="1.5" fill="white"/>
  </symbol>
  <symbol id="icon-trash" viewBox="0 0 24 24">
    <path d="M4 7h16" fill="none" stroke="white" stroke-width="2" stroke-linecap="round"/>
    <path d="M9 7V5h6v2" fill="none" stroke="white" stroke-width="2"/>
    <path d="M7 7l1 12h8l1-12" fill="none" stroke="white" stroke-width="2"/>
  </symbol>
  <symbol id="icon-edit" viewBox="0 0 24 24">
    <path d="M4 20l4-1 10-10-3-3L5 16z" fill="none" stroke="white" stroke-width="2" stroke-linejoin="round"/>
    <path d="M14 6l3 3" fill="none" stroke="white" stroke-width="2" stroke-linecap="round"/>
  </symbol>
  <symbol id="icon-lock" viewBox="0 0 24 24">
    <rect x="6" y="11" width="12" height="9" fill="none" stroke="white" stroke-width="2"/>
    <path d="M8 11V8a4 4 0 0 1 8 0v3" fill="none" stroke="white" stroke-width="2"/>
  </symbol>
  <symbol id="icon-eye" viewBox="0 0 24 24">
    <path d="M2 12s4-6 10-6 10 6 10 6-4 6-10 6-10-6-10-6z" fill="none" stroke="white" stroke-width="2"/>
    <circle cx="12" cy="12" r="3" fill="none" stroke="white" stroke-width="2"/>
  </symbol>
</svg>
